<svg width="34" height="34" viewBox="0 0 34 34" fill="none" xmlns="http://www.w3.org/2000/svg">
<path id="coolicon" d="M29.5496 33.3333H3.69369C1.65372 33.3333 0 31.8409 0 30V6.66667C0 4.82572 1.65372 3.33333 3.69369 3.33333H7.38739V0H11.0811V3.33333H22.1622V0H25.8559V3.33333H29.5496C31.5895 3.33333 33.2432 4.82572 33.2432 6.66667V30C33.2432 31.8409 31.5895 33.3333 29.5496 33.3333ZM3.69369 13.3333V30H29.5496V13.3333H3.69369ZM3.69369 6.66667V10H29.5496V6.66667H3.69369ZM25.8559 26.6667H22.1622V23.3333H25.8559V26.6667ZM18.4685 26.6667H14.7748V23.3333H18.4685V26.6667ZM11.0811 26.6667H7.38739V23.3333H11.0811V26.6667ZM25.8559 20H22.1622V16.6667H25.8559V20ZM18.4685 20H14.7748V16.6667H18.4685V20ZM11.0811 20H7.38739V16.6667H11.0811V20Z" fill="#93A7ED"/>
</svg>
