<svg width="27" height="34" viewBox="0 0 27 34" fill="none" xmlns="http://www.w3.org/2000/svg">
<path d="M13.2658 33.3333C11.4342 33.3333 9.94937 31.8409 9.94937 30H16.5823C16.5823 31.8409 15.0975 33.3333 13.2658 33.3333ZM26.5316 28.3333H0V25L3.31646 23.3333V14.1667C3.31646 8.39667 5.6728 4.655 9.94937 3.63333V0H16.5823V3.63333C20.8589 4.65333 23.2152 8.39333 23.2152 14.1667V23.3333L26.5316 25V28.3333ZM13.2658 6.25C11.2422 6.11867 9.29069 7.0288 8.08386 8.66667C7.05169 10.3076 6.54525 12.2273 6.63291 14.1667V25H19.8987V14.1667C19.9863 12.2273 19.4799 10.3076 18.4478 8.66667C17.241 7.0288 15.2894 6.11867 13.2658 6.25Z" fill="#93A7ED"/>
</svg>
