<svg width="34" height="34" viewBox="0 0 34 34" fill="none" xmlns="http://www.w3.org/2000/svg">
<g clip-path="url(#clip0_65_141)">
<path d="M16.985 0.833252C7.60929 0.833252 0 8.15831 0 17.1838C0 26.2093 7.60929 33.5344 16.985 33.5344C26.3608 33.5344 33.9701 26.2093 33.9701 17.1838C33.9701 8.15831 26.3608 0.833252 16.985 0.833252ZM16.985 5.73842C19.8045 5.73842 22.0805 7.9294 22.0805 10.6436C22.0805 13.3578 19.8045 15.5488 16.985 15.5488C14.1655 15.5488 11.8895 13.3578 11.8895 10.6436C11.8895 7.9294 14.1655 5.73842 16.985 5.73842ZM16.985 28.9562C12.7388 28.9562 8.98508 26.8634 6.79401 23.6913C6.84497 20.4376 13.588 18.6554 16.985 18.6554C20.365 18.6554 27.1251 20.4376 27.176 23.6913C24.985 26.8634 21.2313 28.9562 16.985 28.9562Z" fill="#2E3A59"/>
</g>
<defs>
<clipPath id="clip0_65_141">
<rect width="33.9701" height="33.33" fill="white"/>
</clipPath>
</defs>
</svg>
